HIERARCHY
ROOT joint_Root
{
	OFFSET 0.0 0.0 0.0
	CHANNELS 6 Xposition Yposition Zposition Zrotation Xrotation Yrotation 
	JOINT Hips
	{
		OFFSET -0.726466 93.3139 -2.00062
		CHANNELS 6 Xposition Yposition Zposition Zrotation Xrotation Yrotation 
		JOINT Spine
		{
			OFFSET 15.7357 0.0 0.0
			CHANNELS 6 Xposition Yposition Zposition Zrotation Xrotation Yrotation 
			JOINT Chest
			{
				OFFSET 8.98455 -0.406207 0.0
				CHANNELS 6 Xposition Yposition Zposition Zrotation Xrotation Yrotation 
				JOINT Neck
				{
					OFFSET 16.3773 0.0 0.0
					CHANNELS 6 Xposition Yposition Zposition Zrotation Xrotation Yrotation 
					JOINT Head
					{
						OFFSET 6.45672 0.0 0.0
						CHANNELS 6 Xposition Yposition Zposition Zrotation Xrotation Yrotation 
						End Site
						{
							OFFSET 0.0 0.0 0.0
						}
					}
				}
				JOINT Shoulder_L
				{
					OFFSET 12.9942 -0.242716 4.98039
					CHANNELS 6 Xposition Yposition Zposition Zrotation Xrotation Yrotation 
					JOINT UpperArm_L
					{
						OFFSET 5.34809 0.0 0.0
						CHANNELS 6 Xposition Yposition Zposition Zrotation Xrotation Yrotation 
						JOINT LowerArm_L
						{
							OFFSET 24.3286 1.87007e-05 0.0
							CHANNELS 6 Xposition Yposition Zposition Zrotation Xrotation Yrotation 
							JOINT Hand_L
							{
								OFFSET 22.2916 0.0 0.0
								CHANNELS 6 Xposition Yposition Zposition Zrotation Xrotation Yrotation 
								End Site
								{
									OFFSET 0.0 0.0 0.0
								}
							}
						}
					}
				}
				JOINT Shoulder_R
				{
					OFFSET 12.9945 -0.242716 -4.98039
					CHANNELS 6 Xposition Yposition Zposition Zrotation Xrotation Yrotation 
					JOINT UpperArm_R
					{
						OFFSET -5.34813 0.0 0.0
						CHANNELS 6 Xposition Yposition Zposition Zrotation Xrotation Yrotation 
						JOINT LowerArm_R
						{
							OFFSET -24.3289 0.000322201 0.0
							CHANNELS 6 Xposition Yposition Zposition Zrotation Xrotation Yrotation 
							JOINT Hand_R
							{
								OFFSET -22.2915 -0.000108084 0.0
								CHANNELS 6 Xposition Yposition Zposition Zrotation Xrotation Yrotation 
								End Site
								{
									OFFSET 0.0 0.0 0.0
								}
							}
						}
					}
				}
			}
		}
		JOINT UpperLeg_L
		{
			OFFSET -2.19248 -6.46944 0.0
			CHANNELS 6 Xposition Yposition Zposition Zrotation Xrotation Yrotation 
			JOINT LowerLeg_L
			{
				OFFSET 39.0811 0.0 -1.23785e-05
				CHANNELS 6 Xposition Yposition Zposition Zrotation Xrotation Yrotation 
				JOINT Foot_L
				{
					OFFSET 40.9854 0.0 -1.26872e-05
					CHANNELS 6 Xposition Yposition Zposition Zrotation Xrotation Yrotation 
					JOINT Toes_L
					{
						OFFSET 11.7543 0.0 0.0
						CHANNELS 6 Xposition Yposition Zposition Zrotation Xrotation Yrotation 
						End Site
						{
							OFFSET 0.0 0.0 0.0
						}
					}
				}
			}
		}
		JOINT UpperLeg_R
		{
			OFFSET -2.19251 6.46944 0.0
			CHANNELS 6 Xposition Yposition Zposition Zrotation Xrotation Yrotation 
			JOINT LowerLeg_R
			{
				OFFSET -39.0811 -0.00228153 -0.0401928
				CHANNELS 6 Xposition Yposition Zposition Zrotation Xrotation Yrotation 
				JOINT Foot_R
				{
					OFFSET -40.9854 0.0 0.0
					CHANNELS 6 Xposition Yposition Zposition Zrotation Xrotation Yrotation 
					JOINT Toes_R
					{
						OFFSET -11.7543 0.0 0.0
						CHANNELS 6 Xposition Yposition Zposition Zrotation Xrotation Yrotation 
						End Site
						{
							OFFSET 0.0 0.0 0.0
						}
					}
				}
			}
		}
	}
}
MOTION
Frames:	6
Frame Time:	0.0333333
0.000000 0.000000 0.000000 0.000000 0.000000 -0.000000 2.276100 89.461800 29.057900 91.177300 -7.054810 7.504560 15.735700 0.000005 -0.000001 96.270100 83.241100 -97.000800 8.984550 -0.406207 -0.000000 5.682370 1.486020 -1.533710 16.377300 -0.000001 -0.000001 2.482900 0.086698 -1.237390 6.456720 -0.000001 -0.000000 4.985130 -2.022340 -2.682230 12.994200 -0.242716 4.980390 -89.481600 -1.377430 -69.372900 5.348090 -0.000007 -0.000001 -72.912800 30.652600 -9.736340 24.328600 0.000019 0.000005 1.751020 5.507470 -17.669500 22.291600 -0.000001 0.000005 7.916730 5.422760 -3.688460 12.994500 -0.242716 -4.980390 88.740100 4.480600 -74.276100 -5.348130 -0.000001 -0.000004 -66.167700 34.368400 -19.232000 -24.328900 0.000322 -0.000009 2.990910 11.200100 -15.065400 -22.291500 -0.000108 -0.000004 10.917900 5.372510 -2.063600 -2.192480 -6.469440 -0.000000 177.151000 -5.405760 -13.334100 39.081100 -0.000007 -0.000012 -0.209351 0.270190 37.770000 40.985400 -0.000006 -0.000013 1.375260 -6.617440 -67.656300 11.754300 -0.000000 0.000003 -0.000017 -0.000214 -16.585900 -2.192510 6.469440 -0.000001 174.057000 4.115790 171.281000 -39.081100 -0.002282 -0.040193 0.079738 -0.027280 70.404800 -40.985400 0.000008 0.000006 4.754030 -1.817440 -42.105100 -11.754300 -0.000006 -0.000006 -0.023853 -0.187767 -24.252600
0.000000 0.000000 0.000000 0.000000 0.000000 -0.000000 2.040630 90.364800 33.087100 89.834600 -5.400000 7.686500 15.735700 0.000005 -0.000001 90.410800 83.317000 -90.511500 8.984550 -0.406207 -0.000000 5.599720 0.097513 -0.205810 16.377300 -0.000001 -0.000001 3.081590 -0.315182 -1.473760 6.456720 -0.000001 -0.000000 5.373400 -1.487990 -2.812090 12.994200 -0.242716 4.980390 -89.314200 -1.893930 -70.087800 5.348090 -0.000007 -0.000001 -71.394200 32.929400 -13.284800 24.328600 0.000019 0.000005 1.537360 4.063140 -20.747300 22.291600 -0.000001 0.000005 8.415840 5.445790 -4.489870 12.994500 -0.242716 -4.980390 88.859300 3.853970 -73.497200 -5.348130 -0.000001 -0.000004 -69.341100 32.778400 -14.904100 -24.328900 0.000322 -0.000009 2.887430 13.001100 -12.641300 -22.291500 -0.000108 -0.000004 10.764300 5.347360 -1.298110 -2.192480 -6.469440 -0.000000 178.538000 -4.390880 -8.174860 39.081100 -0.000007 -0.000012 -0.200108 0.294375 34.207100 40.985400 -0.000006 -0.000013 1.366630 -5.834870 -68.859400 11.754300 -0.000000 0.000003 -0.000016 -0.000206 -16.585600 -2.192510 6.469440 -0.000001 176.466000 6.770910 167.938000 -39.081100 -0.002282 -0.040193 0.058774 -0.022053 68.379700 -40.985400 0.000008 0.000006 5.824040 -5.075560 -46.345100 -11.754300 -0.000006 -0.000006 -0.023840 -0.187697 -24.249700
0.000000 0.000000 0.000000 0.000000 0.000000 -0.000000 1.853690 91.103000 36.851900 88.591600 -3.638980 7.459500 15.735700 0.000005 -0.000001 85.300300 83.421300 -84.789700 8.984550 -0.406207 -0.000000 5.352930 -1.086380 1.070710 16.377300 -0.000001 -0.000001 3.429890 -0.978665 -1.681830 6.456720 -0.000001 -0.000000 5.568180 -1.169540 -2.583220 12.994200 -0.242716 4.980390 -89.144400 -2.480890 -70.963200 5.348090 -0.000007 -0.000001 -69.556100 34.406300 -17.179000 24.328600 0.000019 0.000005 1.360570 3.041650 -24.118600 22.291600 -0.000001 0.000005 8.592910 5.461790 -5.066390 12.994500 -0.242716 -4.980390 88.987100 3.218950 -72.521900 -5.348130 -0.000001 -0.000004 -71.941100 29.941400 -10.316400 -24.328900 0.000322 -0.000009 2.422440 11.774800 -11.717000 -22.291500 -0.000108 -0.000004 10.733700 5.338060 -1.021560 -2.192480 -6.469440 -0.000000 179.945000 -4.025630 -3.532500 39.081100 -0.000007 -0.000012 -0.186379 0.320986 30.141700 40.985400 -0.000006 -0.000013 1.578960 -4.419310 -69.552000 11.754300 -0.000000 0.000003 -0.000023 -0.000291 -16.588900 -2.192510 6.469440 -0.000001 178.936000 9.466110 164.901000 -39.081100 -0.002282 -0.040193 0.039644 -0.018421 63.198100 -40.985400 0.000008 0.000006 7.242250 -7.198920 -50.555900 -11.754300 -0.000006 -0.000006 -0.023024 -0.183495 -24.076200
0.000000 0.000000 0.000000 0.000000 0.000000 -0.000000 1.698560 91.505100 40.319300 87.523400 -1.564320 6.635620 15.735700 0.000005 -0.000001 79.152800 83.582500 -78.118000 8.984550 -0.406207 -0.000000 4.865920 -2.436920 2.171160 16.377300 -0.000001 -0.000001 3.445260 -1.505520 -1.752670 6.456720 -0.000001 -0.000000 5.532500 -0.991353 -2.190270 12.994200 -0.242716 4.980390 -89.065100 -2.829320 -71.706500 5.348090 -0.000007 -0.000001 -66.911600 35.271800 -21.443400 24.328600 0.000019 0.000005 1.097000 2.088330 -27.722300 22.291600 -0.000001 0.000005 8.884480 5.474810 -5.551100 12.994500 -0.242716 -4.980390 88.999000 3.025460 -71.683600 -5.348130 -0.000001 -0.000004 -73.175400 27.333800 -6.180580 -24.328900 0.000322 -0.000009 2.024060 9.670060 -11.887700 -22.291500 -0.000108 -0.000004 10.777300 5.345730 -1.249580 -2.192480 -6.469440 -0.000000 -178.941000 -2.892360 -0.246286 39.081100 -0.000007 -0.000012 -0.173306 0.344111 26.731700 40.985400 -0.000006 -0.000013 1.571430 -3.671440 -70.235800 11.754300 -0.000000 0.000003 -0.000052 -0.000582 -16.600100 -2.192510 6.469440 -0.000001 -178.763000 12.272000 161.927000 -39.081100 -0.002282 -0.040193 0.034090 -0.021541 55.087400 -40.985400 0.000008 0.000006 6.864640 -7.775910 -53.047200 -11.754300 -0.000006 -0.000006 -0.021135 -0.173498 -23.663700
0.000000 0.000000 0.000000 0.000000 0.000000 -0.000000 1.547070 91.570400 43.675100 86.953600 0.318500 5.947140 15.735700 0.000005 -0.000001 74.238500 83.603200 -72.877800 8.984550 -0.406207 -0.000000 4.596590 -3.506630 2.859790 16.377300 -0.000001 -0.000001 3.227710 -2.057440 -1.604160 6.456720 -0.000001 -0.000000 5.279580 -0.898494 -1.886150 12.994200 -0.242716 4.980390 -89.109500 -2.788800 -72.283500 5.348090 -0.000007 -0.000001 -63.317800 35.604800 -26.200200 24.328600 0.000019 0.000005 0.734301 1.209130 -31.280900 22.291600 -0.000001 0.000005 9.350390 5.492320 -6.226260 12.994500 -0.242716 -4.980390 88.871200 3.244170 -70.804000 -5.348130 -0.000001 -0.000004 -73.254300 26.035800 -2.795020 -24.328900 0.000322 -0.000009 2.044500 9.302620 -12.459400 -22.291500 -0.000108 -0.000004 11.019900 5.346060 -1.259100 -2.192480 -6.469440 -0.000000 -178.017000 -2.535720 2.780710 39.081100 -0.000007 -0.000012 -0.174950 0.394415 23.920800 40.985400 -0.000006 -0.000013 1.685690 -2.101870 -71.203200 11.754300 -0.000000 0.000003 -0.000034 -0.000409 -16.593500 -2.192510 6.469440 -0.000001 -176.996000 14.745600 160.145000 -39.081100 -0.002282 -0.040193 0.026215 -0.023478 44.346800 -40.985400 0.000008 0.000006 5.977790 -6.496080 -53.617100 -11.754300 -0.000006 -0.000006 -0.022635 -0.181470 -23.992600
0.000000 0.000000 0.000000 0.000000 0.000000 -0.000000 1.404450 91.180800 47.029900 87.107500 1.632320 5.308540 15.735700 0.000005 -0.000001 70.987000 83.577000 -69.596500 8.984550 -0.406207 -0.000000 4.441630 -4.218290 2.942600 16.377300 -0.000001 -0.000001 2.931110 -2.418680 -1.321850 6.456720 -0.000001 -0.000000 4.907040 -0.847182 -1.578670 12.994200 -0.242716 4.980390 -89.168100 -2.665400 -72.659500 5.348090 -0.000007 -0.000001 -59.496700 35.326400 -30.909400 24.328600 0.000019 0.000005 0.616296 0.895049 -34.547700 22.291600 -0.000001 0.000005 10.257900 5.506280 -6.787090 12.994500 -0.242716 -4.980390 88.698200 3.616210 -70.186300 -5.348130 -0.000001 -0.000004 -73.092200 25.715600 -0.212844 -24.328900 0.000322 -0.000009 2.204150 10.127700 -12.352100 -22.291500 -0.000108 -0.000004 11.634100 5.344930 -1.225930 -2.192480 -6.469440 -0.000000 -177.660000 -2.942800 5.192420 39.081100 -0.000007 -0.000012 -0.185302 0.447204 22.507200 40.985400 -0.000006 -0.000013 1.715710 -0.687501 -72.902400 11.754300 -0.000000 0.000003 -0.000053 -0.000592 -16.600500 -2.192510 6.469440 -0.000001 -175.960000 16.594900 159.196000 -39.081100 -0.002282 -0.040193 0.015741 -0.019813 32.131600 -40.985400 0.000008 0.000006 4.386000 -3.501160 -52.398000 -11.754300 -0.000006 -0.000006 -0.023341 -0.185136 -24.143900
